HIERARCHY
ROOT Hips
{
	OFFSET 0.000000 100.481300 0.000000
	CHANNELS 6 Xposition Yposition Zposition Xrotation Yrotation Zrotation 
	JOINT Spine
	{
		OFFSET -0.279200 12.230698 -2.892100
		CHANNELS 3 Xrotation Yrotation Zrotation
		JOINT Spine1
		{
			OFFSET -0.232667 10.192268 -1.242267
			CHANNELS 3 Xrotation Yrotation Zrotation
			JOINT Spine1_split
			{
				OFFSET -0.232667 10.192268 -1.242267
				CHANNELS 3 Xrotation Yrotation Zrotation
				JOINT Spine2
				{
					OFFSET -0.232667 10.192268 -1.242267
					CHANNELS 3 Xrotation Yrotation Zrotation
					JOINT Neck
					{
						OFFSET -0.418800 17.814194 8.416900
						CHANNELS 3 Xrotation Yrotation Zrotation
						JOINT Head
						{
							OFFSET 0.000000 7.031097 3.806800
							CHANNELS 3 Xrotation Yrotation Zrotation
							JOINT HeadTop_End
							{
								OFFSET 0.000000 24.646606 12.978600
								CHANNELS 3 Xrotation Yrotation Zrotation
								End Site
								{
									OFFSET 0.000000 0.000000 0.000000
								}
							}
						}
					}
					JOINT LeftShoulder
					{
						OFFSET 8.476499 7.247704 -3.868750
						CHANNELS 3 Xrotation Yrotation Zrotation
						JOINT LeftShoulder_split
						{
							OFFSET 8.476499 7.247704 -3.868750
							CHANNELS 3 Xrotation Yrotation Zrotation
							JOINT LeftArm
							{
								OFFSET 9.308998 -2.777710 0.208600
								CHANNELS 3 Xrotation Yrotation Zrotation
								JOINT LeftForeArm
								{
									OFFSET 29.972298 0.000000 0.000000
									CHANNELS 3 Xrotation Yrotation Zrotation
									JOINT LeftHand
									{
										OFFSET 26.026505 0.000000 0.000000
										CHANNELS 3 Xrotation Yrotation Zrotation
										JOINT LeftHandThumb1
										{
											OFFSET 12.240501 -7.147949 9.207150
											CHANNELS 3 Xrotation Yrotation Zrotation
											JOINT LeftHandThumb2
											{
												OFFSET 4.138618 -2.389435 2.389433
												CHANNELS 3 Xrotation Yrotation Zrotation
												JOINT LeftHandThumb3
												{
													OFFSET 2.726913 -1.574387 1.574386
													CHANNELS 3 Xrotation Yrotation Zrotation
													JOINT LeftHandThumb4
													{
														OFFSET 3.941010 -2.275345 2.275342
														CHANNELS 3 Xrotation Yrotation Zrotation
														End Site
														{
															OFFSET 0.000000 0.000000 0.000000
														}
													}
												}
											}
										}
										JOINT LeftHandIndex1
										{
											OFFSET 24.424698 -1.985611 5.953459
											CHANNELS 3 Xrotation Yrotation Zrotation
											JOINT LeftHandIndex2
											{
												OFFSET 6.426697 0.000000 0.000000
												CHANNELS 3 Xrotation Yrotation Zrotation
												JOINT LeftHandIndex3
												{
													OFFSET 5.337898 0.000000 0.000000
													CHANNELS 3 Xrotation Yrotation Zrotation
													JOINT LeftHandIndex4
													{
														OFFSET 4.409401 0.000000 0.000000
														CHANNELS 3 Xrotation Yrotation Zrotation
														End Site
														{
															OFFSET 0.000000 0.000000 0.000000
														}
													}
												}
											}
										}
										JOINT LeftHandMiddle1
										{
											OFFSET 23.810104 0.000000 0.000000
											CHANNELS 3 Xrotation Yrotation Zrotation
											JOINT LeftHandMiddle2
											{
												OFFSET 7.176498 0.000000 0.000000
												CHANNELS 3 Xrotation Yrotation Zrotation
												JOINT LeftHandMiddle3
												{
													OFFSET 6.774902 0.000000 0.000000
													CHANNELS 3 Xrotation Yrotation Zrotation
													JOINT LeftHandMiddle4
													{
														OFFSET 5.403328 0.000000 0.000000
														CHANNELS 3 Xrotation Yrotation Zrotation
														End Site
														{
															OFFSET 0.000000 0.000000 0.000000
														}
													}
												}
											}
										}
										JOINT LeftHandRing1
										{
											OFFSET 22.908401 -0.839279 -6.020567
											CHANNELS 3 Xrotation Yrotation Zrotation
											JOINT LeftHandRing2
											{
												OFFSET 6.337502 0.000000 0.000000
												CHANNELS 3 Xrotation Yrotation Zrotation
												JOINT LeftHandRing3
												{
													OFFSET 5.779297 0.000000 0.000000
													CHANNELS 3 Xrotation Yrotation Zrotation
													JOINT LeftHandRing4
													{
														OFFSET 4.965698 0.000000 0.000000
														CHANNELS 3 Xrotation Yrotation Zrotation
														End Site
														{
															OFFSET 0.000000 0.000000 0.000000
														}
													}
												}
											}
										}
										JOINT LeftHandPinky1
										{
											OFFSET 20.037003 -1.530319 -10.950146
											CHANNELS 3 Xrotation Yrotation Zrotation
											JOINT LeftHandPinky2
											{
												OFFSET 5.254700 0.000000 0.000000
												CHANNELS 3 Xrotation Yrotation Zrotation
												JOINT LeftHandPinky3
												{
													OFFSET 4.810204 0.000000 0.000000
													CHANNELS 3 Xrotation Yrotation Zrotation
													JOINT LeftHandPinky4
													{
														OFFSET 3.647202 0.000000 0.000000
														CHANNELS 3 Xrotation Yrotation Zrotation
														End Site
														{
															OFFSET 0.000000 0.000000 0.000000
														}
													}
												}
											}
										}
									}
								}
							}
						}
					}
					JOINT RightShoulder
					{
						OFFSET -7.570500 7.247704 -3.868750
						CHANNELS 3 Xrotation Yrotation Zrotation
						JOINT RightShoulder_split
						{
							OFFSET -7.570500 7.247704 -3.868750
							CHANNELS 3 Xrotation Yrotation Zrotation
							JOINT RightArm
							{
								OFFSET -9.308998 -2.777710 0.208500
								CHANNELS 3 Xrotation Yrotation Zrotation
								JOINT RightForeArm
								{
									OFFSET -29.972300 0.000000 0.000000
									CHANNELS 3 Xrotation Yrotation Zrotation
									JOINT RightHand
									{
										OFFSET -26.026505 0.000000 0.000000
										CHANNELS 3 Xrotation Yrotation Zrotation
										JOINT RightHandThumb1
										{
											OFFSET -12.240601 -7.148026 9.207092
											CHANNELS 3 Xrotation Yrotation Zrotation
											JOINT RightHandThumb2
											{
												OFFSET -4.138618 -2.389435 2.389433
												CHANNELS 3 Xrotation Yrotation Zrotation
												JOINT RightHandThumb3
												{
													OFFSET -2.726974 -1.574417 1.574421
													CHANNELS 3 Xrotation Yrotation Zrotation
													JOINT RightHandThumb4
													{
														OFFSET -3.941010 -2.275345 2.275343
														CHANNELS 3 Xrotation Yrotation Zrotation
														End Site
														{
															OFFSET 0.000000 0.000000 0.000000
														}
													}
												}
											}
										}
										JOINT RightHandIndex1
										{
											OFFSET -24.424698 -1.985657 5.953444
											CHANNELS 3 Xrotation Yrotation Zrotation
											JOINT RightHandIndex2
											{
												OFFSET -6.426697 0.000000 0.000000
												CHANNELS 3 Xrotation Yrotation Zrotation
												JOINT RightHandIndex3
												{
													OFFSET -5.337898 0.000000 0.000000
													CHANNELS 3 Xrotation Yrotation Zrotation
													JOINT RightHandIndex4
													{
														OFFSET -4.409401 0.000000 0.000000
														CHANNELS 3 Xrotation Yrotation Zrotation
														End Site
														{
															OFFSET 0.000000 0.000000 0.000000
														}
													}
												}
											}
										}
										JOINT RightHandMiddle1
										{
											OFFSET -23.810097 0.000000 0.000000
											CHANNELS 3 Xrotation Yrotation Zrotation
											JOINT RightHandMiddle2
											{
												OFFSET -7.176498 0.000000 0.000000
												CHANNELS 3 Xrotation Yrotation Zrotation
												JOINT RightHandMiddle3
												{
													OFFSET -6.774902 0.000000 0.000000
													CHANNELS 3 Xrotation Yrotation Zrotation
													JOINT RightHandMiddle4
													{
														OFFSET -5.403328 0.000000 0.000000
														CHANNELS 3 Xrotation Yrotation Zrotation
														End Site
														{
															OFFSET 0.000000 0.000000 0.000000
														}
													}
												}
											}
										}
										JOINT RightHandRing1
										{
											OFFSET -22.908302 -0.839325 -6.020576
											CHANNELS 3 Xrotation Yrotation Zrotation
											JOINT RightHandRing2
											{
												OFFSET -6.337502 0.000000 0.000000
												CHANNELS 3 Xrotation Yrotation Zrotation
												JOINT RightHandRing3
												{
													OFFSET -5.779297 0.000000 0.000000
													CHANNELS 3 Xrotation Yrotation Zrotation
													JOINT RightHandRing4
													{
														OFFSET -4.965698 0.000000 0.000000
														CHANNELS 3 Xrotation Yrotation Zrotation
														End Site
														{
															OFFSET 0.000000 0.000000 0.000000
														}
													}
												}
											}
										}
										JOINT RightHandPinky1
										{
											OFFSET -20.037003 -1.530334 -10.950259
											CHANNELS 3 Xrotation Yrotation Zrotation
											JOINT RightHandPinky2
											{
												OFFSET -5.254700 0.000000 0.000000
												CHANNELS 3 Xrotation Yrotation Zrotation
												JOINT RightHandPinky3
												{
													OFFSET -4.810204 0.000000 0.000000
													CHANNELS 3 Xrotation Yrotation Zrotation
													JOINT RightHandPinky4
													{
														OFFSET -3.647202 0.000000 0.000000
														CHANNELS 3 Xrotation Yrotation Zrotation
														End Site
														{
															OFFSET 0.000000 0.000000 0.000000
														}
													}
												}
											}
										}
									}
								}
							}
						}
					}
				}
			}
		}
	}
	JOINT LeftUpLeg
	{
		OFFSET 15.427100 -6.655098 0.678600
		CHANNELS 3 Xrotation Yrotation Zrotation
		JOINT LeftLeg
		{
			OFFSET 4.081073 -39.591068 13.024000
			CHANNELS 3 Xrotation Yrotation Zrotation
			JOINT LeftFoot
			{
				OFFSET -4.081074 -37.707932 -15.979700
				CHANNELS 3 Xrotation Yrotation Zrotation
				JOINT LeftToeBase
				{
					OFFSET 5.346399 -15.068900 20.645000
					CHANNELS 3 Xrotation Yrotation Zrotation
					JOINT LeftToe_End
					{
						OFFSET 2.754700 0.931300 11.300900
						CHANNELS 3 Xrotation Yrotation Zrotation
						End Site
						{
							OFFSET 0.000000 0.000000 0.000000
						}
					}
				}
			}
		}
	}
	JOINT RightUpLeg
	{
		OFFSET -15.569500 -6.655098 0.678600
		CHANNELS 3 Xrotation Yrotation Zrotation
		JOINT RightLeg
		{
			OFFSET -4.081825 -39.591045 13.023800
			CHANNELS 3 Xrotation Yrotation Zrotation
			JOINT RightFoot
			{
				OFFSET 4.081824 -37.707954 -15.979600
				CHANNELS 3 Xrotation Yrotation Zrotation
				JOINT RightToeBase
				{
					OFFSET -5.346400 -15.068900 20.645000
					CHANNELS 3 Xrotation Yrotation Zrotation
					JOINT RightToe_End
					{
						OFFSET -2.754700 0.931300 11.300900
						CHANNELS 3 Xrotation Yrotation Zrotation
						End Site
						{
							OFFSET 0.000000 0.000000 0.000000
						}
					}
				}
			}
		}
	}
}
MOTION
Frames: 4
Frame Time: 0.016667
-1.945811 94.259369 -2.185126 -8.995056 -5.566098 9.161232 2.426266 1.473460 -5.863618 4.666352 1.729999 -2.802045 0.000000 0.000000 0.000000 4.685184 1.690012 -2.793393 -2.808737 -0.350888 -5.041333 -1.723852 -2.292227 2.025737 0.000000 -0.000000 -0.000000 4.034696 -13.464703 -7.420044 0.000000 0.000000 0.000000 5.772112 3.721064 -60.112925 11.491842 -25.077058 -5.820579 -8.196588 -3.557934 7.163531 -21.992135 17.035902 -2.008551 5.703902 22.366209 5.520049 -0.000002 0.000008 -0.000016 -0.000000 -0.000001 -0.000001 -2.899126 12.800595 -7.221982 2.739052 6.814378 -29.837634 0.000002 0.000003 -0.000000 -0.000002 -0.000000 0.000001 -8.983035 7.076829 -9.539577 4.275436 7.169713 -39.702346 0.000008 0.000002 0.000008 0.000002 0.000000 -0.000002 -16.256865 8.648362 -21.626588 4.109025 6.928482 -36.756970 -0.000003 0.000005 -0.000010 -0.000000 0.000000 -0.000002 -21.808791 10.569993 -31.866924 1.910800 2.504678 -24.353770 0.000000 -0.000002 0.000004 0.000000 -0.000000 -0.000001 3.919268 12.466706 7.900379 0.000000 0.000000 0.000000 -3.939680 -11.622640 68.565073 15.857372 12.603587 4.140663 -8.305448 0.914265 -6.259063 -21.991971 -17.035487 2.009232 5.703646 -22.367053 -5.520844 0.000002 0.000004 -0.000018 -0.000000 -0.000001 0.000000 -2.899133 -12.801058 7.221834 2.738666 -6.813217 29.837808 0.000002 -0.000005 0.000007 -0.000000 0.000000 -0.000002 -8.983057 -7.076430 9.538902 4.275413 -7.169936 39.704050 0.000003 -0.000003 -0.000006 -0.000000 0.000000 0.000003 -16.256643 -8.649604 21.626339 4.109544 -6.928328 36.756335 -0.000003 0.000003 0.000009 -0.000001 0.000000 -0.000002 -21.809407 -10.568761 31.865957 1.910740 -2.505955 24.353736 0.000001 0.000002 -0.000003 0.000001 -0.000000 0.000001 9.197525 15.165761 -13.234940 10.536953 -0.417937 -0.567184 -8.842914 -0.074362 4.244978 -0.000005 0.000002 0.000000 -0.000000 -0.000000 -0.000000 -6.463717 -13.978069 -25.553233 23.493059 1.023199 0.605579 -9.043395 -10.210667 9.066538 -0.000096 -0.000004 0.000199 -0.000000 -0.000002 0.000000 
-1.985817 94.139427 -2.162244 -9.088300 -5.473808 8.952093 2.544512 1.416233 -5.721258 4.913430 1.686253 -2.761732 0.000000 0.000000 0.000000 4.931893 1.643645 -2.752654 -3.587673 -0.245977 -5.289813 -1.743662 -2.215875 1.752009 -0.000000 0.000000 -0.000000 3.979139 -13.925283 -7.123390 0.000000 0.000000 0.000000 8.808446 0.870772 -59.276179 9.104197 -28.163815 -6.388872 -8.185932 -3.893765 7.156319 -21.796566 17.067038 -2.254228 5.203253 22.372773 5.475978 -0.000003 0.000011 -0.000016 -0.000000 0.000001 -0.000001 -2.942354 12.989532 -7.794516 2.737327 6.823867 -30.157491 0.000003 0.000002 -0.000000 0.000001 0.000000 -0.000001 -8.964743 7.351978 -10.247547 4.392794 7.266431 -40.753929 0.000008 0.000002 0.000009 0.000000 0.000000 -0.000004 -16.096203 8.801837 -21.946429 4.244158 7.047113 -37.953811 -0.000002 0.000006 -0.000008 0.000001 -0.000000 -0.000001 -21.489850 10.821461 -32.647256 2.037495 2.734379 -25.918462 -0.000000 -0.000001 0.000002 -0.000001 0.000000 -0.000001 3.867133 12.882169 7.705443 0.000000 0.000000 0.000000 -3.144262 -10.625763 68.163082 17.220645 14.146988 3.950151 -8.237061 -0.271349 -5.322051 -21.973215 -16.867439 2.049167 5.973383 -23.678888 -5.152982 0.000001 -0.000001 -0.000019 -0.000001 0.000002 -0.000001 -2.802271 -12.889475 8.069508 2.700034 -6.811030 29.794661 0.000002 -0.000007 0.000007 0.000000 0.000003 -0.000002 -9.075012 -7.233161 10.442675 4.430272 -7.269915 40.816814 0.000004 -0.000004 -0.000005 0.000000 0.000000 0.000000 -16.277753 -8.826607 22.153681 4.270813 -7.005736 38.208020 -0.000003 0.000003 0.000012 -0.000000 0.000000 -0.000003 -21.881018 -10.795285 31.748427 2.048322 -2.646573 25.644157 0.000001 0.000001 -0.000004 -0.000000 0.000000 -0.000001 8.590954 15.252931 -12.928175 11.577109 -0.478662 -0.454287 -8.674149 0.014639 4.391883 -0.000009 0.000004 0.000000 -0.000000 -0.000000 -0.000000 -6.471145 -13.931520 -25.251158 23.909779 0.815201 0.514167 -9.262505 -10.174404 8.735013 -0.000085 0.000012 0.000198 -0.000000 0.000003 -0.000000 
-2.060100 94.119690 -2.083848 -9.275942 -5.308169 8.642860 2.778887 1.338401 -5.583442 5.395335 1.608660 -2.665655 0.000000 0.000000 0.000000 5.413140 1.560643 -2.655692 -4.963397 -0.057444 -5.756622 -1.813866 -2.079885 1.239585 0.000000 0.000000 -0.000000 3.884198 -14.711367 -6.633770 0.000000 0.000000 0.000000 14.149910 -3.920238 -57.208121 5.105500 -33.594979 -7.629389 -8.168619 -4.251239 7.302858 -21.332262 17.091737 -2.837962 3.958066 22.289146 5.402744 -0.000002 0.000009 -0.000012 -0.000001 -0.000000 0.000000 -3.076573 13.365442 -9.160875 2.825257 6.942464 -31.688820 0.000003 0.000001 0.000001 -0.000001 0.000001 -0.000000 -8.994090 7.873348 -11.761441 4.679775 7.511360 -43.257480 0.000007 0.000002 0.000002 -0.000000 0.000002 0.000001 -15.795542 9.131217 -22.750962 4.548038 7.323668 -40.771499 -0.000002 0.000007 -0.000014 0.000000 -0.000000 0.000000 -20.863670 11.238468 -34.243645 2.364631 3.249451 -29.568306 -0.000000 -0.000001 0.000006 0.000001 -0.000000 0.000001 3.778978 13.585870 7.369177 0.000000 0.000000 0.000000 -1.561297 -8.690972 67.291112 19.661253 17.108686 3.253681 -8.102057 -2.099969 -3.619101 -21.920065 -16.431941 2.146739 5.822849 -25.325638 -4.915308 0.000003 0.000005 -0.000019 -0.000000 0.000003 -0.000000 -2.709166 -13.063778 9.415220 2.637324 -6.812455 29.750798 0.000001 -0.000006 0.000005 0.000000 0.000001 -0.000002 -9.249254 -7.574073 11.793330 4.704353 -7.483150 42.958731 0.000004 -0.000002 -0.000008 0.000001 0.000000 0.000002 -16.291700 -9.133654 22.933036 4.484998 -7.133884 40.801703 -0.000004 0.000003 0.000013 0.000000 -0.000000 0.000001 -22.155950 -11.243182 31.536722 2.308637 -2.917800 28.251694 0.000001 0.000001 -0.000003 0.000000 -0.000000 0.000003 7.621562 15.353094 -12.368321 13.154944 -0.503610 -0.396189 -7.819990 0.146503 4.639571 -0.090323 0.000320 -0.206142 0.000000 0.000000 -0.000000 -6.344326 -13.923060 -24.938868 24.342115 0.771482 0.492107 -8.861429 -10.284413 8.867666 -0.152476 -0.000901 0.346362 -0.000000 -0.000002 0.000000 
-2.109597 94.334122 -1.874464 -9.499324 -5.112371 8.319700 3.035877 1.280371 -5.533815 5.918541 1.537689 -2.526866 0.000000 0.000000 0.000000 5.935775 1.483429 -2.515835 -6.201183 0.091968 -6.231189 -2.418391 -1.955304 0.684861 -0.000000 0.000000 -0.000000 3.794422 -15.397644 -6.279941 0.000000 0.000000 0.000000 19.088021 -7.935490 -54.787953 2.088981 -38.551077 -8.015100 -8.160018 -4.316231 7.783482 -20.667444 17.055913 -3.671357 2.093577 21.990043 5.341697 -0.000003 0.000006 -0.000014 -0.000000 -0.000001 0.000001 -3.328977 13.761961 -11.122456 3.108025 7.224229 -34.978287 0.000003 -0.000000 0.000004 0.000000 -0.000002 0.000003 -9.153364 8.386884 -13.672318 5.098727 7.862118 -46.821643 0.000006 0.000001 0.000003 0.000002 0.000000 -0.000002 -15.503464 9.530019 -23.916881 4.949146 7.703896 -44.692356 -0.000000 0.000005 -0.000008 0.000001 -0.000001 -0.000001 -20.170267 11.554902 -36.157341 2.865207 3.935190 -34.609019 -0.000001 -0.000003 0.000001 -0.000001 -0.000002 -0.000001 3.699331 14.186509 7.099044 0.000000 0.000000 0.000000 0.249527 -6.540138 66.152062 22.073773 20.344051 2.093870 -7.944375 -3.252923 -1.946566 -21.837780 -15.758146 2.290951 4.826216 -25.921253 -5.103669 0.000002 -0.000005 -0.000020 -0.000001 -0.000002 -0.000003 -2.750367 -13.242985 10.381509 2.660928 -6.889636 30.409556 -0.000000 -0.000006 0.000006 -0.000000 0.000000 -0.000001 -9.463692 -7.971136 12.505461 4.961998 -7.753088 45.326327 0.000004 -0.000002 -0.000012 -0.000001 -0.000000 0.000003 -16.257541 -9.400683 23.322062 4.532901 -7.232896 43.244168 -0.000003 0.000003 0.000015 0.000000 -0.000000 -0.000004 -22.702109 -11.736720 31.293857 2.545877 -3.202607 31.286108 0.000001 0.000002 -0.000007 0.000001 -0.000000 0.000001 7.297332 15.306382 -11.920313 13.754806 -0.517708 -0.379980 -6.803920 0.240181 4.901804 -1.412652 0.017029 -0.690639 -0.000000 0.000000 -0.000000 -5.993163 -14.179509 -24.689742 24.285535 0.802906 0.501739 -7.906154 -10.289142 9.289692 -0.381382 -0.005740 0.864903 -0.000000 -0.000002 0.000000 
